<?xml version="1.0" encoding="UTF-8" standalone="no"?>
<!DOCTYPE svg PUBLIC "-//W3C//DTD SVG 1.1//EN" "http://www.w3.org/Graphics/SVG/1.1/DTD/svg11.dtd">
<svg width="100%" height="100%" viewBox="0 0 2052 628" version="1.1" xmlns="http://www.w3.org/2000/svg" xmlns:xlink="http://www.w3.org/1999/xlink" xml:space="preserve" xmlns:serif="http://www.serif.com/" style="fill-rule:evenodd;clip-rule:evenodd;stroke-linejoin:round;stroke-miterlimit:2;">
    <g transform="matrix(1,0,0,1,-193,-1123)">
        <g transform="matrix(7.85819,0,0,7.85819,193.28,1122.82)">
            <g id="Layer_1-2">
                <path d="M150.43,56.77L135.84,37.77C129.99,30.77 122.72,24.08 122.72,14.87C122.72,14.87 122.72,0.04 135.81,0.04C151.69,0.04 151.2,23.36 141.76,31.14C140.18,29.2 138.44,27.26 136.57,25.29C141.07,20.51 141.57,14.54 140.06,10.83C139.13,8.57 137.48,7.22 135.64,7.22C133.8,7.22 132.14,8.57 131.22,10.83C129.64,14.7 130.08,19.83 135.31,25.93C136.87,27.74 138.67,29.81 140.47,32.13C150.43,45.53 150.43,56.77 150.43,56.77Z" style="fill:rgb(95,85,140);fill-rule:nonzero;"/>
                <path d="M111.68,71.43L159.3,71.43C157.12,68.36 136.73,40.91 134.78,38.58C131.78,35 124.14,27.58 122.62,20.86C118.75,31.29 132.62,47.78 135.62,51.15L135.62,51.21C135.84,51.46 136.09,51.8 136.09,51.8L145.2,64.16C145.267,64.267 145.267,64.403 145.2,64.51C145.142,64.628 145.021,64.702 144.89,64.7L126,64.7C125.881,64.697 125.771,64.632 125.71,64.53C125.701,64.487 125.701,64.443 125.71,64.4C125.707,64.373 125.707,64.347 125.71,64.32C125.72,64.284 125.737,64.25 125.76,64.22L134.54,52C132.667,49.887 130.901,47.681 129.25,45.39L111.68,71.43Z" style="fill:rgb(95,85,140);fill-rule:nonzero;"/>
                <path d="M6.31,29.28C6.91,29.28 7.48,29.303 8.02,29.35C8.56,29.397 9.053,29.45 9.5,29.51C9.947,29.57 10.343,29.64 10.69,29.72C10.957,29.778 11.221,29.851 11.48,29.94L11.38,33.63L11,33.63C11.046,32.741 10.676,31.879 10,31.3C9.111,30.676 8.033,30.379 6.95,30.46C5.919,30.423 4.905,30.733 4.07,31.34C3.343,31.832 2.904,32.652 2.9,33.53C2.896,33.871 2.953,34.21 3.07,34.53C3.196,34.861 3.383,35.167 3.62,35.43C3.9,35.741 4.212,36.023 4.55,36.27L11,41C11.666,41.436 12.194,42.054 12.52,42.78C12.865,43.532 13.029,44.354 13,45.18C13.015,46.248 12.701,47.296 12.1,48.18C11.493,49.056 10.665,49.756 9.7,50.21C8.626,50.735 7.445,51.006 6.25,51C5.459,50.998 4.669,50.928 3.89,50.79C3.152,50.666 2.428,50.469 1.73,50.2C1.155,49.987 0.618,49.683 0.14,49.3C0.035,48.834 -0.012,48.357 -0,47.88C0.001,47.306 0.058,46.733 0.17,46.17C0.267,45.643 0.418,45.127 0.62,44.63L1,44.63C0.887,45.567 1.054,46.517 1.48,47.36C1.886,48.133 2.517,48.764 3.29,49.17C4.158,49.611 5.127,49.818 6.1,49.77C7.27,49.829 8.424,49.475 9.36,48.77C10.117,48.148 10.546,47.21 10.52,46.23C10.527,45.687 10.388,45.152 10.12,44.68C9.788,44.146 9.349,43.686 8.83,43.33L2.59,38.77C1.847,38.273 1.256,37.581 0.88,36.77C0.552,36.029 0.404,35.22 0.45,34.41C0.479,33.469 0.77,32.555 1.29,31.77C1.815,30.993 2.536,30.369 3.38,29.96C4.29,29.506 5.293,29.273 6.31,29.28ZM11.49,29.59L11.49,30.21L8.63,30.21L8.63,29.59L11.49,29.59Z" style="fill:rgb(140,132,173);fill-rule:nonzero;"/>
                <path d="M17.8,31.94L17.73,31.94C17.714,30.931 16.88,30.109 15.87,30.109C15.847,30.109 15.823,30.109 15.8,30.11L15.32,30.11L15.32,29.77L18.18,29.77L17.8,31.94ZM17.8,48.26L18.18,50.47L15.32,50.47L15.32,50.13L15.8,50.13C16.31,50.147 16.805,49.947 17.16,49.58C17.505,49.228 17.708,48.762 17.73,48.27L17.8,48.26ZM20.87,29.77L20.87,50.47L17.74,50.47L17.74,29.77L20.87,29.77ZM29.87,29.77L29.87,30.94L20.87,30.94L20.87,29.77L29.87,29.77ZM28.32,39.57L28.32,40.74L20.81,40.74L20.81,39.56L28.32,39.57ZM29.77,49.3L30,50.47L20.81,50.47L20.81,49.29L29.77,49.3ZM31.77,45.06L30.08,50.48L24.6,50.48L25.74,49.31C26.673,49.34 27.6,49.155 28.45,48.77C29.164,48.421 29.784,47.907 30.26,47.27C30.758,46.596 31.152,45.851 31.43,45.06L31.77,45.06ZM29.85,29.21L29.85,30.11L26,29.77C26.751,29.766 27.5,29.703 28.24,29.58C28.788,29.51 29.327,29.387 29.85,29.21ZM28.3,37.32L28.3,39.63L26.08,39.63L26.08,39.56C26.598,39.595 27.105,39.388 27.45,39C27.758,38.634 27.925,38.169 27.92,37.69L27.92,37.31L28.3,37.32ZM28.3,40.67L28.3,43L27.92,43L27.92,42.6C27.93,42.114 27.763,41.641 27.45,41.27C27.101,40.896 26.601,40.697 26.09,40.73L26.09,40.66L28.3,40.67ZM29.85,30.84L29.85,33.67L29.5,33.67L29.5,33.22C29.523,32.618 29.311,32.03 28.91,31.58C28.489,31.141 27.897,30.907 27.29,30.94L27.29,30.84L29.85,30.84Z" style="fill:rgb(140,132,173);fill-rule:nonzero;"/>
                <path d="M54.41,41.77L54.31,46.67C53.73,47.55 52.986,48.31 52.12,48.91C51.169,49.579 50.115,50.089 49,50.42C47.736,50.804 46.421,51 45.1,51C42.938,51.031 40.797,50.569 38.84,49.65C37.153,48.841 35.743,47.55 34.79,45.94C33.803,44.177 33.312,42.179 33.37,40.16C33.313,38.134 33.803,36.13 34.79,34.36C35.739,32.742 37.149,31.443 38.84,30.63C40.797,29.714 42.94,29.265 45.1,29.32C46.559,29.319 48.013,29.494 49.43,29.84C50.706,30.133 51.933,30.611 53.07,31.26L53.59,36.33L53.28,36.33C52.941,34.49 51.877,32.861 50.33,31.81C48.786,30.883 47.01,30.415 45.21,30.46C43.614,30.412 42.037,30.825 40.67,31.65C39.396,32.461 38.385,33.625 37.76,35C37.052,36.612 36.711,38.36 36.76,40.12C36.713,41.876 37.055,43.621 37.76,45.23C38.371,46.604 39.373,47.77 40.64,48.58C41.983,49.39 43.522,49.819 45.09,49.82C46.621,49.853 48.143,49.57 49.56,48.99C50.827,48.448 51.908,47.548 52.67,46.4C53.534,45.016 54.04,43.438 54.14,41.81L54.41,41.77Z" style="fill:rgb(140,132,173);fill-rule:nonzero;"/>
                <path d="M59.07,31.94L59,31.94C58.989,31.442 58.776,30.969 58.41,30.63C58.046,30.286 57.561,30.099 57.06,30.11L56.58,30.11L56.58,29.77L59.37,29.77L59.07,31.94ZM59.07,48.26L59.38,50.47L56.59,50.47L56.59,50.13L57.07,50.13C57.577,50.142 58.066,49.942 58.42,49.58C58.777,49.232 58.985,48.758 59,48.26L59.07,48.26ZM62.07,29.77L62.07,50.47L59,50.47L59,29.77L62.07,29.77ZM62,48.26L62.1,48.26C62.089,48.765 62.297,49.25 62.67,49.59C63.034,49.943 63.523,50.138 64.03,50.13L64.44,50.13L64.44,50.47L61.66,50.47L62,48.26ZM65.9,29.77C66.864,29.761 67.825,29.875 68.76,30.11C69.565,30.318 70.325,30.674 71,31.16C71.632,31.619 72.147,32.223 72.5,32.92C72.87,33.69 73.051,34.536 73.03,35.39C73.035,37.219 72.15,38.94 70.66,40C69.836,40.555 68.888,40.898 67.9,41C68.496,41.24 69.027,41.616 69.45,42.1C69.951,42.61 70.403,43.166 70.8,43.76C71.197,44.354 71.01,44.03 71.28,44.43C71.55,44.83 71.91,45.32 72.33,45.88C72.75,46.44 73.19,47 73.62,47.55C74.05,48.1 74.53,48.55 74.91,48.93C75.267,49.281 75.684,49.565 76.14,49.77C76.62,49.974 77.138,50.072 77.66,50.06L77.66,50.4L76,50.4C74.938,50.43 73.878,50.291 72.86,49.99C72.101,49.751 71.398,49.363 70.79,48.85C70.248,48.377 69.761,47.844 69.34,47.26C69.103,46.962 68.883,46.652 68.68,46.33L67.73,44.86L66.82,43.43C66.547,42.997 66.373,42.71 66.3,42.57C65.919,41.967 65.447,41.427 64.9,40.97C64.459,40.574 63.892,40.347 63.3,40.33L63.3,40L64.89,40C65.487,39.978 66.082,39.914 66.67,39.81C67.285,39.701 67.857,39.42 68.32,39C68.901,38.417 69.307,37.682 69.49,36.88C69.569,36.625 69.625,36.364 69.66,36.1C69.694,35.768 69.694,35.432 69.66,35.1C69.634,34.47 69.495,33.851 69.25,33.27C69.044,32.782 68.729,32.348 68.33,32C67.933,31.68 67.483,31.433 67,31.27C66.484,31.094 65.945,30.997 65.4,30.98L63.14,30.98C62.777,31.007 62.413,31.007 62.05,30.98L61.71,29.81L65.9,29.77Z" style="fill:rgb(140,132,173);fill-rule:nonzero;"/>
                <path d="M79.94,31.94L79.87,31.94C79.854,30.931 79.02,30.109 78.01,30.109C77.987,30.109 77.963,30.109 77.94,30.11L77.46,30.11L77.46,29.77L80.32,29.77L79.94,31.94ZM79.94,48.26L80.32,50.47L77.46,50.47L77.46,50.13L77.94,50.13C78.45,50.147 78.945,49.947 79.3,49.58C79.645,49.228 79.848,48.762 79.87,48.27L79.94,48.26ZM83,29.77L83,50.47L79.88,50.47L79.88,29.77L83,29.77ZM92,29.77L92,30.94L83,30.94L83,29.77L92,29.77ZM90.45,39.57L90.45,40.74L82.95,40.74L82.95,39.56L90.45,39.57ZM91.9,49.3L92.14,50.47L82.95,50.47L82.95,49.29L91.9,49.3ZM93.9,45.06L92.21,50.48L86.74,50.48L87.88,49.31C88.813,49.34 89.74,49.155 90.59,48.77C91.304,48.421 91.924,47.907 92.4,47.27C92.898,46.596 93.292,45.851 93.57,45.06L93.9,45.06ZM92,29.21L92,30.11L88.17,29.77C88.921,29.766 89.67,29.703 90.41,29.58C90.951,29.509 91.483,29.385 92,29.21ZM90.45,37.32L90.45,39.63L88.22,39.63L88.22,39.56C88.738,39.595 89.245,39.388 89.59,39C89.898,38.634 90.065,38.169 90.06,37.69L90.06,37.31L90.45,37.32ZM90.45,40.67L90.45,43L90.07,43L90.07,42.6C90.08,42.114 89.913,41.641 89.6,41.27C89.251,40.896 88.751,40.697 88.24,40.73L88.24,40.66L90.45,40.67ZM92,30.83L92,33.66L91.65,33.66L91.65,33.21C91.673,32.608 91.461,32.02 91.06,31.57C90.639,31.131 90.047,30.897 89.44,30.93L89.44,30.83L92,30.83Z" style="fill:rgb(140,132,173);fill-rule:nonzero;"/>
                <path d="M94.3,29.18C94.612,29.276 94.929,29.356 95.25,29.42C95.719,29.518 96.193,29.591 96.67,29.64C97.145,29.696 97.622,29.726 98.1,29.73L94.3,30.07L94.3,29.18ZM113.62,29.73L113.62,30.87L94.3,30.87L94.3,29.73L113.62,29.73ZM96.88,30.8L96.88,30.87C96.273,30.86 95.687,31.099 95.26,31.53C94.857,31.971 94.645,32.553 94.67,33.15L94.67,33.6L94.3,33.6L94.3,30.8L96.88,30.8ZM102.44,48.26L102.44,50.47L100,50.47L100,50.13L100.41,50.13C101.456,50.133 102.337,49.314 102.41,48.27L102.44,48.26ZM105.54,29.87L105.54,50.47L102.37,50.47L102.37,29.87L105.54,29.87ZM105.44,48.26L105.54,48.26C105.539,48.761 105.754,49.239 106.13,49.57C106.502,49.924 106.997,50.121 107.51,50.12L107.89,50.12L107.89,50.46L105.44,50.46L105.44,48.26ZM113.62,29.18L113.62,30.08L109.83,29.74C110.308,29.736 110.785,29.706 111.26,29.65C111.737,29.601 112.211,29.528 112.68,29.43C112.997,29.362 113.311,29.279 113.62,29.18ZM113.62,30.8L113.62,33.6L113.24,33.6L113.24,33.15C113.264,32.554 113.052,31.971 112.65,31.53C112.223,31.099 111.637,30.86 111.03,30.87L111.03,30.8L113.62,30.8Z" style="fill:rgb(140,132,173);fill-rule:nonzero;"/>
                <path d="M112.08,79.83L112.08,75L113.77,75C114.086,74.981 114.402,75.025 114.7,75.13C114.899,75.225 115.06,75.383 115.16,75.58C115.285,75.817 115.347,76.082 115.34,76.35C115.357,76.678 115.262,77.003 115.07,77.27C114.875,77.51 114.596,77.668 114.29,77.71C114.453,77.824 114.598,77.963 114.72,78.12C114.895,78.37 115.048,78.635 115.18,78.91L115.66,79.86L114.66,79.86L114.08,78.8C113.952,78.551 113.808,78.311 113.65,78.08C113.588,77.994 113.506,77.925 113.41,77.88C113.281,77.839 113.145,77.822 113.01,77.83L112.84,77.83L112.84,79.83L112.08,79.83ZM112.88,77.03L113.48,77.03C113.709,77.057 113.941,77.057 114.17,77.03C114.27,76.997 114.355,76.93 114.41,76.84C114.477,76.722 114.509,76.586 114.5,76.45C114.507,76.321 114.476,76.192 114.41,76.08C114.35,75.99 114.262,75.924 114.16,75.89C113.944,75.868 113.726,75.868 113.51,75.89L112.88,75.89L112.88,77.03Z" style="fill:rgb(95,85,140);fill-rule:nonzero;"/>
                <path d="M116.25,79.83L116.25,75L119.25,75L119.25,75.82L117,75.82L117,76.9L119,76.9L119,77.72L117,77.72L117,79L119.22,79L119.22,79.82L116.25,79.83Z" style="fill:rgb(95,85,140);fill-rule:nonzero;"/>
                <path d="M123.7,79.83L122.83,79.83L122.48,78.73L120.89,78.73L120.56,79.83L119.71,79.83L121.25,75L122.1,75L123.7,79.83ZM122.22,77.91L121.67,76.11L121.13,77.91L122.22,77.91Z" style="fill:rgb(95,85,140);fill-rule:nonzero;"/>
                <path d="M124.27,75L125.73,75C126.015,74.984 126.301,75.025 126.57,75.12C126.774,75.216 126.953,75.36 127.09,75.54C127.262,75.766 127.388,76.025 127.46,76.3C127.561,76.682 127.608,77.075 127.6,77.47C127.607,77.838 127.56,78.205 127.46,78.56C127.388,78.827 127.266,79.078 127.1,79.3C126.959,79.478 126.777,79.618 126.57,79.71C126.316,79.811 126.043,79.859 125.77,79.85L124.26,79.85L124.27,75ZM125.07,75.82L125.07,79L125.67,79C125.859,79.011 126.049,78.987 126.23,78.93C126.341,78.883 126.438,78.807 126.51,78.71C126.6,78.57 126.661,78.414 126.69,78.25C126.789,77.691 126.789,77.119 126.69,76.56C126.655,76.38 126.576,76.212 126.46,76.07C126.361,75.953 126.228,75.869 126.08,75.83C125.864,75.808 125.646,75.808 125.43,75.83L125.07,75.82Z" style="fill:rgb(95,85,140);fill-rule:nonzero;"/>
                <path d="M131.77,79.83L131.77,75.83L130.59,75.83L130.59,75L133.75,75L133.75,75.82L132.57,75.82L132.57,79.82L131.77,79.83Z" style="fill:rgb(95,85,140);fill-rule:nonzero;"/>
                <path d="M134.42,79.83L134.42,75L135.22,75L135.22,76.91L136.8,76.91L136.8,75L137.6,75L137.6,79.85L136.8,79.85L136.8,77.71L135.22,77.71L135.22,79.83L134.42,79.83Z" style="fill:rgb(95,85,140);fill-rule:nonzero;"/>
                <path d="M139.63,79.83L139.63,77.83L138.18,75L139.12,75L140,76.9L141,75L141.92,75L140.46,77.82L140.46,79.82L139.63,79.83Z" style="fill:rgb(95,85,140);fill-rule:nonzero;"/>
                <path d="M144.68,78.25L145.46,78.16C145.547,78.78 145.837,79.09 146.33,79.09C146.537,79.101 146.741,79.033 146.9,78.9C147.036,78.782 147.113,78.61 147.11,78.43C147.114,78.332 147.089,78.235 147.04,78.15C146.986,78.067 146.91,78.002 146.82,77.96C146.585,77.862 146.345,77.778 146.1,77.71C145.833,77.64 145.579,77.525 145.35,77.37C145.186,77.243 145.056,77.079 144.97,76.89C144.875,76.69 144.828,76.471 144.83,76.25C144.827,76.002 144.889,75.757 145.01,75.54C145.125,75.334 145.299,75.166 145.51,75.06C145.754,74.946 146.021,74.892 146.29,74.9C146.334,74.896 146.379,74.894 146.423,74.894C147.18,74.894 147.803,75.516 147.803,76.274C147.803,76.306 147.802,76.338 147.8,76.37L147,76.37C146.991,76.165 146.909,75.97 146.77,75.82C146.629,75.707 146.451,75.649 146.27,75.66C146.092,75.65 145.916,75.699 145.77,75.8C145.661,75.879 145.598,76.006 145.6,76.14C145.6,76.269 145.659,76.39 145.76,76.47C145.984,76.612 146.231,76.714 146.49,76.77C146.801,76.846 147.098,76.97 147.37,77.14C147.548,77.268 147.689,77.441 147.78,77.64C147.88,77.874 147.927,78.126 147.92,78.38C147.93,78.77 147.79,79.149 147.53,79.44C147.205,79.753 146.759,79.91 146.31,79.87C145.33,79.897 144.787,79.357 144.68,78.25Z" style="fill:rgb(95,85,140);fill-rule:nonzero;"/>
                <path d="M148.74,79.83L148.74,75L151.74,75L151.74,75.82L149.59,75.82L149.59,76.9L151.59,76.9L151.59,77.72L149.59,77.72L149.59,79L151.81,79L151.81,79.82L148.74,79.83Z" style="fill:rgb(95,85,140);fill-rule:nonzero;"/>
                <path d="M152.62,79.83L152.62,75L153.42,75L153.42,79L155.42,79L155.42,79.82L152.62,79.83Z" style="fill:rgb(95,85,140);fill-rule:nonzero;"/>
                <path d="M156.16,79.83L156.16,75L158.89,75L158.89,75.82L157,75.82L157,76.97L158.67,76.97L158.67,77.79L157,77.79L157,79.85L156.16,79.83Z" style="fill:rgb(95,85,140);fill-rule:nonzero;"/>
                <path d="M159.38,31.81L159.31,31.81C159.298,31.304 159.082,30.824 158.71,30.48C158.346,30.128 157.857,29.933 157.35,29.94L156.94,29.94L156.94,29.6L159.39,29.6L159.38,31.81ZM159.38,48.06L159.38,50.3L156.9,50.3L156.9,50L157.35,50C157.862,50.005 158.355,49.799 158.71,49.43C159.075,49.085 159.282,48.603 159.28,48.1L159.38,48.06ZM162.45,29.6L162.45,50.3L159.28,50.3L159.28,29.6L162.45,29.6ZM168.45,29.6C170.538,29.544 172.612,29.968 174.51,30.84C176.138,31.613 177.497,32.857 178.41,34.41C179.353,36.101 179.823,38.015 179.77,39.95C179.824,41.879 179.354,43.787 178.41,45.47C177.492,47.02 176.134,48.262 174.51,49.04C172.615,49.924 170.54,50.356 168.45,50.3L161,50.3L161,49.16L168.38,49.16C170.618,49.273 172.79,48.364 174.28,46.69C175.792,44.777 176.554,42.375 176.42,39.94C176.554,37.505 175.792,35.103 174.28,33.19C172.79,31.516 170.618,30.607 168.38,30.72L160.65,30.72L160.65,29.6L168.45,29.6Z" style="fill:rgb(140,132,173);fill-rule:nonzero;"/>
                <path d="M185,31.77C184.987,30.759 184.151,29.935 183.14,29.935C183.093,29.935 183.047,29.936 183,29.94L182.52,29.94L182.52,29.6L185.38,29.6L185,31.77ZM185,48.09L185.38,50.3L182.52,50.3L182.52,50L183,50C183.51,50.017 184.005,49.817 184.36,49.45C184.705,49.098 184.908,48.632 184.93,48.14L185,48.09ZM188.07,29.6L188.07,50.3L185,50.3L185,29.6L188.07,29.6ZM197.07,29.6L197.07,30.77L188.07,30.77L188.07,29.6L197.07,29.6ZM195.52,39.4L195.52,40.57L188,40.57L188,39.4L195.52,39.4ZM197,49.13L197.24,50.3L188,50.3L188,49.13L197,49.13ZM199,44.89L197.3,50.3L191.81,50.3L193,49.13C193.933,49.16 194.86,48.975 195.71,48.59C196.424,48.241 197.044,47.727 197.52,47.09C198.018,46.416 198.412,45.671 198.69,44.88L199,44.89ZM197.06,29L197.06,29.9L193.23,29.56C193.981,29.556 194.73,29.493 195.47,29.37C196.011,29.299 196.543,29.175 197.06,29ZM195.51,37.11L195.51,39.42L193.3,39.42L193.3,39.4C193.813,39.435 194.315,39.232 194.66,38.85C194.968,38.484 195.135,38.019 195.13,37.54L195.13,37.16L195.51,37.11ZM195.51,40.46L195.51,42.77L195.13,42.77L195.13,42.39C195.14,41.904 194.973,41.431 194.66,41.06C194.311,40.686 193.811,40.487 193.3,40.52L193.3,40.5L195.51,40.46ZM197.06,30.63L197.06,33.5L196.71,33.5L196.71,33C196.733,32.398 196.521,31.81 196.12,31.36C195.699,30.921 195.107,30.687 194.5,30.72L194.5,30.62L197.06,30.63Z" style="fill:rgb(140,132,173);fill-rule:nonzero;"/>
                <path d="M222.66,41.61L222.56,46.51C221.98,47.39 221.236,48.15 220.37,48.75C219.412,49.417 218.351,49.924 217.23,50.25C215.97,50.619 214.663,50.801 213.35,50.79C211.188,50.821 209.047,50.359 207.09,49.44C205.388,48.638 203.964,47.346 203,45.73C202.013,43.967 201.522,41.969 201.58,39.95C201.523,37.924 202.013,35.92 203,34.15C203.949,32.532 205.359,31.233 207.05,30.42C209.007,29.504 211.15,29.055 213.31,29.11C214.769,29.109 216.223,29.284 217.64,29.63C218.927,29.903 220.167,30.365 221.32,31L221.84,36.07L221.53,36.07C221.191,34.23 220.127,32.601 218.58,31.55C217.036,30.623 215.26,30.155 213.46,30.2C211.864,30.152 210.287,30.565 208.92,31.39C207.65,32.202 206.642,33.366 206.02,34.74C205.312,36.352 204.971,38.1 205.02,39.86C204.962,41.625 205.297,43.38 206,45C206.611,46.374 207.613,47.54 208.88,48.35C210.223,49.16 211.762,49.589 213.33,49.59C214.861,49.623 216.383,49.34 217.8,48.76C219.067,48.218 220.148,47.318 220.91,46.17C221.774,44.786 222.28,43.208 222.38,41.58L222.66,41.61Z" style="fill:rgb(140,132,173);fill-rule:nonzero;"/>
                <path d="M228.29,31.81L228.22,31.81C228.208,31.304 227.992,30.824 227.62,30.48C227.241,30.125 226.739,29.931 226.22,29.94L225.81,29.94L225.81,29.6L228.29,29.6L228.29,31.81ZM228.29,48.1L228.29,50.3L225.84,50.3L225.84,50L226.22,50C226.742,50.014 227.247,49.815 227.62,49.45C227.985,49.11 228.201,48.639 228.22,48.14L228.29,48.1ZM231.36,29.61L231.36,50.3L228.22,50.3L228.22,29.6L231.36,29.61ZM231.26,31.82L231.26,29.6L233.71,29.6L233.71,29.94L233.33,29.94C232.811,29.931 232.309,30.125 231.93,30.48C231.557,30.82 231.349,31.305 231.36,31.81L231.26,31.82ZM231.26,48.11L231.36,48.11C231.356,48.607 231.564,49.084 231.93,49.42C232.303,49.785 232.808,49.984 233.33,49.97L233.71,49.97L233.71,50.31L231.26,50.31L231.26,48.11ZM243.58,29.86L234.23,40.18L232.5,40.25L241,29.84L243.58,29.86ZM235,38.26L243.56,48.37C243.918,48.83 244.355,49.223 244.85,49.53C245.385,49.816 245.983,49.964 246.59,49.96L246.59,50.3L244.86,50.3C244.58,50.3 244.23,50.3 243.79,50.25C243.295,50.207 242.803,50.127 242.32,50.01C241.747,49.87 241.196,49.655 240.68,49.37C240.105,49.049 239.601,48.613 239.2,48.09L238.63,47.42L237.37,45.92C236.863,45.32 236.323,44.7 235.75,44.06C235.177,43.42 234.643,42.803 234.15,42.21L232.48,40.21L235,38.26ZM245.76,29.6L245.76,29.94L245.62,29.94C244.961,29.936 244.306,30.055 243.69,30.29C243.121,30.494 242.611,30.838 242.21,31.29L239.76,31.29C239.999,31.05 240.056,30.681 239.9,30.38C239.721,30.083 239.385,29.915 239.04,29.95L238.73,29.95L238.73,29.6L245.76,29.6Z" style="fill:rgb(140,132,173);fill-rule:nonzero;"/>
                <path d="M254.34,29.12C254.94,29.12 255.51,29.143 256.05,29.19C256.59,29.237 257.083,29.29 257.53,29.35C257.977,29.41 258.373,29.48 258.72,29.56C258.987,29.618 259.251,29.691 259.51,29.78L259.41,33.47L259,33.47C259.046,32.581 258.676,31.719 258,31.14C257.111,30.516 256.033,30.219 254.95,30.3C253.919,30.263 252.905,30.573 252.07,31.18C251.347,31.674 250.912,32.494 250.91,33.37C250.906,33.711 250.963,34.05 251.08,34.37C251.206,34.701 251.393,35.007 251.63,35.27C251.91,35.581 252.222,35.863 252.56,36.11L259,40.81C259.666,41.246 260.194,41.864 260.52,42.59C260.866,43.345 261.031,44.17 261,45C261.015,46.068 260.701,47.116 260.1,48C259.494,48.862 258.674,49.552 257.72,50C256.642,50.508 255.461,50.761 254.27,50.74C253.479,50.738 252.689,50.668 251.91,50.53C251.172,50.406 250.448,50.209 249.75,49.94C249.175,49.727 248.638,49.423 248.16,49.04C248.058,48.587 248.011,48.124 248.02,47.66C248.028,47.102 248.088,46.546 248.2,46C248.297,45.473 248.448,44.957 248.65,44.46L249,44.46C248.887,45.397 249.054,46.347 249.48,47.19C249.893,47.967 250.536,48.599 251.32,49C252.188,49.441 253.157,49.648 254.13,49.6C255.3,49.659 256.454,49.305 257.39,48.6C258.147,47.978 258.576,47.04 258.55,46.06C258.557,45.517 258.418,44.982 258.15,44.51C257.818,43.976 257.379,43.516 256.86,43.16L250.61,38.61C249.867,38.113 249.276,37.421 248.9,36.61C248.572,35.869 248.424,35.06 248.47,34.25C248.499,33.309 248.79,32.395 249.31,31.61C249.835,30.833 250.556,30.209 251.4,29.8C252.313,29.344 253.32,29.111 254.34,29.12ZM259.52,29.43L259.52,30L256.66,30L256.66,29.38L259.52,29.43Z" style="fill:rgb(140,132,173);fill-rule:nonzero;"/>
            </g>
        </g>
    </g>
</svg>
